<svg version="1.0" xmlns="http://www.w3.org/2000/svg"
     width="22.000000pt" height="28.000000pt" viewBox="0 0 52.000000 58.000000"
     preserveAspectRatio="xMidYMid meet">

    <g transform="translate(0.000000,58.000000) scale(0.100000,-0.100000)"
       fill="#000000" stroke="none">
        <path d="M160 567 c0 -8 7 -20 15 -27 25 -21 18 -63 -16 -96 -67 -63 -92 -182
-55 -268 11 -28 15 -53 10 -82 -4 -28 -1 -51 9 -70 l14 -27 24 41 c22 39 27
42 67 42 25 0 42 5 42 11 0 17 -32 38 -58 39 -33 0 -82 52 -82 87 0 16 8 44
18 62 19 35 78 75 95 64 5 -3 6 -27 3 -54 -5 -39 -4 -49 8 -49 23 0 74 66 82
105 9 48 36 65 106 65 64 0 73 7 57 44 -17 36 -73 59 -152 62 -56 3 -74 8 -98
29 -17 14 -37 25 -44 25 -7 0 -20 3 -29 6 -10 4 -16 1 -16 -9z m260 -112 c10
-12 9 -16 -3 -21 -25 -9 -51 0 -55 19 -4 22 40 24 58 2z"/>
        <path d="M368 316 c-25 -11 -25 -13 -12 -39 24 -44 49 -29 42 25 -3 23 -5 24
-30 14z"/>
    </g>
</svg>