<?xml version="1.0" encoding="UTF-8"?>
<svg xmlns="http://www.w3.org/2000/svg" xmlns:xlink="http://www.w3.org/1999/xlink" width="304px" height="100px" viewBox="0 0 304 100" version="1.1">
<g id="surface1">
<path style=" stroke:none;fill-rule:nonzero;fill:rgb(0%,0%,0%);fill-opacity:1;" d="M 0 50.035156 L 0 100.066406 L 303.933594 100.066406 L 303.933594 0 L 0 0 Z M 92.953125 19.980469 C 94.726562 20.695312 96.195312 22.164062 96.195312 23.222656 C 96.195312 26.605469 88.824219 27.082031 86.132812 23.839844 C 85.652344 23.292969 85.277344 22.40625 85.277344 21.890625 C 85.277344 20.800781 86.402344 19.605469 87.667969 19.363281 C 88.859375 19.160156 91.757812 19.46875 92.953125 19.980469 Z M 110.964844 29.0625 C 109.019531 32.378906 101.140625 38.421875 93.941406 42.109375 C 89.917969 44.160156 82.957031 46.890625 80.707031 47.335938 C 79.480469 47.539062 79.378906 47.507812 79.648438 46.925781 C 80.84375 44.023438 81.21875 42.65625 81.527344 40.09375 C 81.902344 36.507812 82.855469 34.734375 85.246094 32.957031 C 87.085938 31.625 90.019531 30.328125 92.679688 29.644531 C 93.703125 29.40625 97.21875 29.234375 101.855469 29.234375 C 108.335938 29.199219 109.464844 29.132812 110.214844 28.621094 C 111.441406 27.765625 111.644531 27.867188 110.964844 29.0625 Z M 132.523438 35.246094 C 134.945312 35.859375 137.605469 37.464844 139.445312 39.414062 C 146.953125 47.335938 144.597656 60.3125 134.773438 65.164062 C 132.25 66.425781 132.148438 66.425781 128.121094 66.425781 C 124.132812 66.425781 123.925781 66.394531 121.675781 65.300781 C 115.433594 62.226562 111.679688 54.917969 112.839844 48.054688 C 114.476562 38.59375 123.210938 32.890625 132.523438 35.246094 Z M 65.628906 41.632812 C 66.824219 42.964844 66.621094 47.027344 65.152344 50.992188 C 64.503906 52.699219 64.402344 52.800781 62.355469 53.585938 C 57.035156 55.566406 53.007812 58.949219 51.097656 63.011719 C 50.042969 65.230469 49.972656 65.640625 49.972656 68.921875 L 49.972656 72.4375 L 49.1875 71.480469 C 47.484375 69.363281 46.1875 64.003906 46.5625 60.792969 C 47.277344 54.882812 49.359375 50.273438 53.042969 46.585938 C 54.339844 45.253906 56.148438 43.75 57.035156 43.238281 C 60.71875 41.085938 64.503906 40.367188 65.628906 41.632812 Z M 161.652344 43.921875 C 161.722656 43.988281 161.3125 45.082031 160.765625 46.34375 C 159.742188 48.601562 159.710938 48.632812 158.414062 48.667969 C 156.570312 48.703125 155.242188 49.691406 154.320312 51.742188 C 153.570312 53.347656 153.5 53.859375 153.5 59.835938 L 153.5 66.257812 L 148.726562 66.257812 L 148.726562 43.683594 L 150.667969 43.785156 L 152.648438 43.886719 L 152.851562 45.183594 C 152.957031 45.867188 153.160156 46.550781 153.261719 46.6875 C 153.398438 46.789062 154.011719 46.34375 154.59375 45.628906 C 155.992188 44.058594 157.933594 43.304688 159.980469 43.578125 C 160.835938 43.683594 161.585938 43.851562 161.652344 43.921875 Z M 177.480469 44.261719 C 178.09375 44.570312 179.015625 45.21875 179.527344 45.695312 C 180.347656 46.449219 180.515625 46.515625 180.789062 46.105469 C 180.960938 45.832031 181.132812 45.183594 181.132812 44.636719 C 181.132812 43.714844 181.164062 43.714844 183.347656 43.714844 L 185.566406 43.714844 L 185.566406 75.476562 L 180.789062 75.476562 L 180.789062 63.113281 L 179.085938 64.652344 C 177.003906 66.53125 175.023438 67.078125 172.160156 66.597656 C 167.929688 65.914062 165.066406 63.082031 163.871094 58.402344 C 162.132812 51.570312 165.40625 45.253906 171.476562 43.714844 C 173.148438 43.304688 176.117188 43.578125 177.480469 44.261719 Z M 229.601562 44.433594 C 233.015625 45.9375 235.710938 49.964844 235.8125 53.894531 L 235.878906 55.5 L 227.691406 55.667969 L 219.507812 55.839844 L 219.609375 56.832031 C 219.746094 58.058594 220.53125 59.664062 221.519531 60.722656 C 223.804688 63.25 227.828125 63.113281 230.761719 60.449219 C 231.445312 59.835938 231.480469 59.835938 232.980469 61.132812 L 234.515625 62.464844 L 233.492188 63.523438 C 232.945312 64.105469 231.511719 65.0625 230.320312 65.640625 C 225.578125 67.964844 219.949219 66.5625 216.777344 62.226562 C 215.175781 60.039062 214.492188 57.820312 214.492188 54.882812 C 214.527344 50.820312 216.199219 47.472656 219.265625 45.355469 C 222.304688 43.273438 226.054688 42.929688 229.601562 44.433594 Z M 195.457031 51.570312 C 195.457031 60.246094 195.59375 60.996094 197.503906 61.988281 C 199.003906 62.773438 201.597656 62.636719 202.996094 61.714844 C 205.179688 60.28125 205.351562 59.460938 205.351562 51.128906 L 205.351562 43.714844 L 210.125 43.714844 L 210.125 66.257812 L 208.078125 66.257812 C 206.132812 66.257812 206.03125 66.222656 205.828125 65.300781 C 205.417969 63.386719 205.382812 63.355469 204.222656 64.445312 C 202.519531 66.085938 201.019531 66.699219 198.734375 66.699219 C 195.355469 66.699219 193.070312 65.402344 191.601562 62.671875 C 190.886719 61.40625 190.851562 60.757812 190.75 52.492188 L 190.648438 43.714844 L 195.457031 43.714844 Z M 195.457031 51.570312 "/>
<path style=" stroke:none;fill-rule:nonzero;fill:rgb(0%,0%,0%);fill-opacity:1;" d="M 125.019531 40.300781 C 122.9375 41.121094 120.414062 43.546875 119.320312 45.695312 C 118.640625 47.0625 118.535156 47.8125 118.535156 50.886719 C 118.535156 54.234375 118.605469 54.609375 119.527344 56.285156 C 122.835938 62.226562 129.65625 63.523438 134.464844 59.117188 C 136.511719 57.273438 137.640625 55.226562 138.117188 52.699219 C 138.492188 50.75 138.152344 47.574219 137.367188 45.695312 C 136.648438 44.023438 134.226562 41.425781 132.523438 40.574219 C 130.542969 39.550781 127.199219 39.414062 125.019531 40.300781 Z M 125.019531 40.300781 "/>
<path style=" stroke:none;fill-rule:nonzero;fill:rgb(0%,0%,0%);fill-opacity:1;" d="M 172.089844 48.464844 C 169.667969 49.589844 168.476562 51.671875 168.476562 54.988281 C 168.441406 59.699219 171.445312 62.636719 175.671875 62.054688 C 178.777344 61.644531 180.484375 59.1875 180.515625 55.121094 C 180.515625 51.707031 179.5625 49.660156 177.378906 48.566406 C 175.570312 47.644531 173.933594 47.609375 172.089844 48.464844 Z M 172.089844 48.464844 "/>
<path style=" stroke:none;fill-rule:nonzero;fill:rgb(0%,0%,0%);fill-opacity:1;" d="M 222.40625 48.222656 C 221.179688 49.078125 219.675781 51.023438 219.675781 51.777344 C 219.675781 52.152344 220.800781 52.253906 225.304688 52.253906 C 231.511719 52.253906 231.546875 52.253906 230.183594 50.203125 C 228.921875 48.394531 227.761719 47.710938 225.578125 47.539062 C 223.90625 47.4375 223.394531 47.539062 222.40625 48.222656 Z M 222.40625 48.222656 "/>
</g>
</svg>
